HIERARCHY
ROOT root
{
	OFFSET 0.000000 0.000000 0.000000
	CHANNELS 6 Xposition Yposition Zposition Zrotation Yrotation Xrotation
	JOINT lhip
	{
		OFFSET 0.058581 -0.082280 -0.017664
		CHANNELS 3 Zrotation Yrotation Xrotation
		JOINT lknee
		{
			OFFSET 0.043451 -0.386469 0.008037
			CHANNELS 3 Zrotation Yrotation Xrotation
			JOINT lankle
			{
				OFFSET -0.014790 -0.426874 -0.037428
				CHANNELS 3 Zrotation Yrotation Xrotation
				JOINT ltoe
				{
					OFFSET 0.041054 -0.060286 0.122042
					CHANNELS 3 Zrotation Yrotation Xrotation
					End Site
					{
						OFFSET 0.000000 0.000000 0.000000
					}
				}
			}
		}
	}
	JOINT rhip
	{
		OFFSET -0.060310 -0.090513 -0.013543
		CHANNELS 3 Zrotation Yrotation Xrotation
		JOINT rknee
		{
			OFFSET -0.043257 -0.383688 -0.004843
			CHANNELS 3 Zrotation Yrotation Xrotation
			JOINT rankle
			{
				OFFSET 0.019056 -0.420046 -0.034562
				CHANNELS 3 Zrotation Yrotation Xrotation
				JOINT rtoe
				{
					OFFSET -0.034840 -0.062106 0.130323
					CHANNELS 3 Zrotation Yrotation Xrotation
					End Site
					{
						OFFSET 0.000000 0.000000 0.000000
					}
				}
			}
		}
	}
	JOINT lowerback
	{
		OFFSET 0.004439 0.124404 -0.038385
		CHANNELS 3 Zrotation Yrotation Xrotation
		JOINT upperback
		{
			OFFSET 0.004488 0.137956 0.026820
			CHANNELS 3 Zrotation Yrotation Xrotation
			JOINT chest
			{
				OFFSET -0.002265 0.056032 0.002855
				CHANNELS 3 Zrotation Yrotation Xrotation
				JOINT lowerneck
				{
					OFFSET -0.013390 0.211636 -0.033468
					CHANNELS 3 Zrotation Yrotation Xrotation
					JOINT upperneck
					{
						OFFSET 0.010113 0.088937 0.050410
						CHANNELS 3 Zrotation Yrotation Xrotation
						End Site
						{
							OFFSET 0.000000 0.000000 0.000000
						}
					}
				}
				JOINT lclavicle
				{
					OFFSET 0.071702 0.114000 -0.018898
					CHANNELS 3 Zrotation Yrotation Xrotation
					JOINT lshoulder
					{
						OFFSET 0.122921 0.045205 -0.019046
						CHANNELS 3 Zrotation Yrotation Xrotation
						JOINT lelbow
						{
							OFFSET 0.255332 -0.015649 -0.022946
							CHANNELS 3 Zrotation Yrotation Xrotation
							JOINT lwrist
							{
								OFFSET 0.265709 0.012698 -0.007375
								CHANNELS 3 Zrotation Yrotation Xrotation
								End Site
								{
									OFFSET 0.000000 0.000000 0.000000
								}
							}
						}
					}
				}
				JOINT rclavicle
				{
					OFFSET -0.082954 0.112472 -0.023707
					CHANNELS 3 Zrotation Yrotation Xrotation
					JOINT rshoulder
					{
						OFFSET -0.113228 0.046853 -0.008472
						CHANNELS 3 Zrotation Yrotation Xrotation
						JOINT relbow
						{
							OFFSET -0.260127 -0.014369 -0.031269
							CHANNELS 3 Zrotation Yrotation Xrotation
							JOINT rwrist
							{
								OFFSET -0.269108 0.006794 -0.006027
								CHANNELS 3 Zrotation Yrotation Xrotation
								End Site
								{
									OFFSET 0.000000 0.000000 0.000000
								}
							}
						}
					}
				}
			}
		}
	}
}
MOTION
Frames: 7
Frame Time: 0.033333
0.488851 0.231224 1.005792 87.487916 2.013482 96.204439 5.921672 5.272819 -2.551582 2.546275 -2.201010 -5.458020 -3.566475 7.045701 -4.128212 0.000000 -0.000000 0.000000 -3.052800 -3.317432 -6.350062 -2.043701 0.972331 1.522763 7.337109 -1.692906 -5.618855 0.000000 -0.000000 0.000000 4.949663 -0.364402 9.000020 -6.016700 -0.249354 -12.765870 -2.922580 1.818030 -5.404045 -23.323571 18.919082 -25.352973 -18.976616 20.194319 -20.977983 -22.735634 1.966066 -3.906877 -51.852250 -6.249755 7.638228 3.863008 -7.322881 23.815320 -9.563247 -7.061352 12.838618 20.385473 0.369717 2.877732 60.096273 3.702908 18.193047 1.279031 10.622125 13.524228 5.749822 1.599963 -1.115033 
0.488923 0.230826 1.005908 87.366153 1.997489 96.146677 5.905082 5.265914 -2.420499 2.574825 -2.345072 -5.526174 -3.328111 7.293656 -4.084725 0.000000 -0.000000 0.000000 -3.074505 -3.469049 -6.327680 -1.980087 1.195560 1.552285 7.261756 -1.642346 -5.601965 0.000000 -0.000000 0.000000 4.870470 -0.437028 8.910719 -6.079217 -0.135948 -12.608865 -2.905440 1.832447 -5.294837 -23.373419 19.782185 -24.438324 -19.315513 21.001334 -20.408062 -22.731546 1.895744 -3.885381 -51.769977 -6.315855 7.481528 3.705652 -7.472903 23.902782 -9.514352 -6.902756 12.958616 20.579564 0.214718 2.956668 59.832723 3.940220 17.959459 1.334023 10.609873 13.471163 5.806324 1.580550 -0.694304 
0.489034 0.230470 1.006081 87.192437 1.991599 96.035989 5.887507 5.271480 -2.222876 2.623345 -2.334930 -5.593266 -3.300381 7.456710 -4.051828 0.000000 -0.000000 0.000000 -3.081891 -3.464629 -6.236066 -1.964651 1.296982 1.551881 7.297086 -1.605654 -5.595247 0.000000 -0.000000 0.000000 4.940675 -0.354847 9.075591 -6.174638 -0.064316 -12.614492 -3.041841 1.765446 -5.346917 -23.348397 20.773320 -23.437253 -19.428117 21.812177 -19.508060 -22.580308 1.953143 -3.818677 -51.800258 -6.385547 7.438340 3.583976 -7.594722 24.051286 -9.528831 -6.846704 13.068740 20.611356 -0.026062 3.018844 59.854304 4.019417 17.974909 1.315721 10.692870 13.568962 5.849130 1.517027 -0.679035 
0.488741 0.230017 1.006378 87.052407 1.995623 95.933960 5.904242 5.251880 -2.097823 2.630844 -2.293949 -5.569572 -3.187341 7.580157 -4.105055 0.000000 -0.000000 0.000000 -3.090741 -3.480681 -6.203162 -1.922856 1.321923 1.628708 7.344485 -1.468123 -5.653022 0.000000 -0.000000 0.000000 4.940087 -0.336864 9.109990 -6.168597 -0.039869 -12.521466 -3.063058 1.702863 -5.323825 -23.210715 22.307219 -21.619113 -19.758450 23.301429 -18.498515 -22.514331 2.030582 -3.749090 -51.913034 -6.532656 7.559025 3.505338 -7.637308 24.057080 -9.326727 -6.811244 13.053861 20.507033 -0.251099 3.129779 59.787035 4.375315 18.139109 1.564345 10.602782 13.768331 5.825236 1.542078 -0.786166 
0.488628 0.229882 1.006399 87.008653 1.994540 95.909677 5.911678 5.251757 -2.069460 2.626909 -2.290790 -5.566012 -3.164690 7.597355 -4.108933 0.000000 -0.000000 0.000000 -3.088187 -3.477439 -6.191546 -1.921175 1.332986 1.629236 7.304893 -1.455610 -5.650157 0.000000 -0.000000 0.000000 4.934252 -0.350293 9.118848 -6.166874 -0.020538 -12.491237 -3.056323 1.698216 -5.334038 -23.181905 22.827860 -20.964973 -19.832998 23.828832 -18.100133 -22.469782 2.041640 -3.691103 -51.971699 -6.572136 7.555505 3.510241 -7.691833 24.077524 -9.441089 -6.773916 12.956049 20.442461 -0.302863 3.232370 59.830080 4.501878 18.152538 1.543665 10.590406 13.835025 5.939696 1.554567 -0.817405 
0.488530 0.229695 1.006405 86.984577 1.981542 95.848416 5.922659 5.272665 -1.987912 2.592993 -2.291570 -5.596028 -3.092524 7.622928 -4.106208 0.000000 -0.000000 0.000000 -3.116520 -3.507971 -6.124050 -1.883460 1.315453 1.615459 7.226213 -1.413015 -5.674914 0.000000 -0.000000 0.000000 4.985318 -0.390126 9.137654 -6.177851 -0.058704 -12.432860 -3.076130 1.666131 -5.363642 -23.052682 23.798101 -19.520565 -20.029852 24.810684 -17.382205 -22.385506 2.062062 -3.556419 -52.063423 -6.616167 7.534390 3.510393 -7.754408 24.070626 -9.371273 -6.760432 12.741396 20.253573 -0.400248 3.461598 60.002444 4.753185 18.183060 1.544922 10.546750 13.864599 5.797880 1.636871 -0.879668 
0.488109 0.229602 1.006487 86.976432 1.972814 95.760673 5.929994 5.276427 -1.917512 2.576961 -2.329796 -5.593115 -3.058935 7.652498 -4.083243 0.000000 -0.000000 0.000000 -3.136989 -3.498218 -6.034788 -1.866329 1.323219 1.581894 7.234945 -1.415187 -5.661971 0.000000 -0.000000 0.000000 5.043465 -0.452563 9.284891 -6.187080 -0.100215 -12.440364 -3.107175 1.685216 -5.317330 -22.953950 24.679491 -18.541794 -20.152663 25.718956 -16.574527 -22.344934 2.014627 -3.505494 -52.100282 -6.685001 7.546759 3.498593 -7.764478 24.069501 -9.288901 -6.785198 12.768036 20.189866 -0.436101 3.572407 60.056965 4.923128 18.212976 1.544365 10.580678 13.848310 5.744569 1.615020 -0.912287 
